# xmcd CD database file
#
# Track frame offsets:
#	150
#	12142
#	26297
#	32212
#	40491
#	51409
#	64884
#	78542
#	90060
#	102489
#	115381
#	133875
#	144035
#	156563
#	168895
#	181436
#	193038
#	206436
#	217465
#	231400
#	250394
#	262112
#	276805
#	291184
#
# Disc length: 4116 seconds
#
# Revision: 1
# Processed by: cddbd v1.5.2PL0 Copyright (c) Steve Scherf et al.
# Submitted via: CDex 1.51
#
DISCID=6e101218
DTITLE=Les Baxter - Eight Classic Albums vol. 2.2 Carribean Moonlight and La Femme
DYEAR=1956
DGENRE=Jazz
TTITLE0=Taboo
TTITLE1=Deep Night
TTITLE2=The Breeze And I
TTITLE3=Nightingale
TTITLE4=Temptation
TTITLE5=Poinciana
TTITLE6=Ay, Ay, Ay
TTITLE7=Adios
TTITLE8=Carnival
TTITLE9=Green eyes
TTITLE10=Out Of This World
TTITLE11=Sway (Quien Era)
TTITLE12=Les Levres
TTITLE13=Les Bras
TTITLE14=Les Yeux
TTITLE15=La Taille
TTITLE16=Les Doigts
TTITLE17=Les Seins
TTITLE18=Les Hanches
TTITLE19=Le Lobe Des Oreilles
TTITLE20=La Chevelure
TTITLE21=Le Mollet
TTITLE22=Les Cuisses
TTITLE23=La Nuque
EXTD=YEAR: 1956
EXTT0=
EXTT1=
EXTT2=
EXTT3=
EXTT4=
EXTT5=
EXTT6=
EXTT7=
EXTT8=
EXTT9=
EXTT10=
EXTT11=
EXTT12=
EXTT13=
EXTT14=
EXTT15=
EXTT16=
EXTT17=
EXTT18=
EXTT19=
EXTT20=
EXTT21=
EXTT22=
EXTT23=
PLAYORDER=
